:SAMPLES-PER-SECOND 30
:FULLY-SPECIFIED
:DEGREES
675
root  -10.5641 38.566 5.27989 176.509 -80.7986 175.971
RightUpLeg  17.5186 -8.52113 -1.59043
RightLeg  13.4467 9.65956 2.06822
RightFoot  -20.3699 -0.463235 -4.1345
RightToes  -4.65661e-009 0 -3.6325e-017
Spine  0.363244 1.82987 8.24177
Spine1  9.4203 3.80669 -6.98123
HEad  2.04533 -26.4696 0.0930164
LeftShoulder1  -0.582284 5.01383 -32.4118
LeftArm  -0.846206 23.0072 -38.5594
LeftForeArm  34.0413 -11.4771 -7.97374
LeftHand  -0.0928766 8.47002 -1.63508
RightShoulder  -0.87603 -6.02465 28.1582
RightArm  27.2988 10.5207 51.6854
RightForeArm  7.69467 22.4448 4.56188
RightHand  -0.174857 5.26947 -2.21429
LeftUpLeg  -16.3563 3.21714 1.84934
LeftLeg  -0.331088 -2.67979 -0.0331323
LeftFoot  -1.67046 0.563373 -6.57273
LeftToes  9.86798e-010 -1.28139e-010 1.4132e-011
676
root  -11.979 38.3208 5.28052 178.437 -79.734 173.797
RightUpLeg  19.5109 -7.94508 -2.88554
RightLeg  14.6208 10.7506 2.17651
RightFoot  -21.8032 -0.380282 -2.53968
RightToes  -4.65661e-009 0 -3.6325e-017
Spine  0.0857066 2.00801 7.45286
Spine1  10.035 4.12157 -7.30868
HEad  1.99072 -27.8233 0.444168
LeftShoulder1  -0.533476 4.8987 -32.1063
LeftArm  -1.84081 21.8212 -38.9312
LeftForeArm  34.6495 -11.2666 -7.84169
LeftHand  -0.0793596 8.2137 -1.30917
RightShoulder  -0.945974 -6.17617 28.8364
RightArm  27.4528 9.14916 51.5036
RightForeArm  8.18867 20.6962 4.85155
RightHand  -0.143887 4.35458 -2.00165
LeftUpLeg  -17.5169 2.12128 0.632944
LeftLeg  5.18595 -3.60343 0.0459183
LeftFoot  2.65527 0.339146 -3.08043
LeftToes  9.86798e-010 -1.28139e-010 1.4132e-011
677
root  -13.4463 38.1153 5.31964 -179.061 -78.297 170.82
RightUpLeg  21.2662 -5.70715 -4.05905
RightLeg  16.4141 10.4921 2.46755
RightFoot  -22.6579 -0.178206 -0.267699
RightToes  -4.65661e-009 0 -3.6325e-017
Spine  0.347866 2.17725 6.49911
Spine1  9.84693 4.39449 -7.75315
HEad  2.5192 -28.9644 0.751795
LeftShoulder1  -0.570567 4.99331 -32.1239
LeftArm  -1.25564 21.2846 -38.6503
LeftForeArm  33.7441 -12.2006 -7.5391
LeftHand  -0.103719 8.21942 -2.25689
RightShoulder  -0.943277 -6.13137 29.3286
RightArm  25.4978 7.38266 51.3986
RightForeArm  10.555 17.0423 6.05112
RightHand  -0.113495 4.64289 -1.60208
LeftUpLeg  -17.9956 1.0847 -0.499429
LeftLeg  9.89995 -4.49842 -0.293897
LeftFoot  8.90755 -0.032715 -0.0406098
LeftToes  9.86798e-010 -1.28139e-010 1.4132e-011
678
root  -14.981 37.9168 5.35083 -175.438 -76.5491 166.656
RightUpLeg  21.9436 -2.04822 -5.36271
RightLeg  20.3166 9.28582 3.50108
RightFoot  -22.9511 0.159912 3.07268
RightToes  -4.65661e-009 0 -3.6325e-017
Spine  0.353208 2.36532 4.74648
Spine1  9.78116 4.45217 -7.349
HEad  2.94626 -28.8931 0.777964
LeftShoulder1  -0.709616 5.32145 -32.8947
LeftArm  -0.197822 20.0094 -37.6756
LeftForeArm  31.9366 -12.5649 -7.6012
LeftHand  -0.0779506 7.73681 -1.66395
RightShoulder  -0.902937 -6.0279 29.1913
RightArm  20.7613 5.45581 51.7467
RightForeArm  17.4844 12.2995 7.54468
RightHand  -0.0223489 2.94094 -0.486731
LeftUpLeg  -18.6252 0.842758 -1.61579
LeftLeg  16.3797 -2.98646 -0.658649
LeftFoot  9.04582 -0.253938 1.15352
LeftToes  9.86798e-010 -1.28139e-010 1.4132e-011
679
root  -16.3962 37.824 5.38464 -170.68 -74.7429 160.981
RightUpLeg  21.0733 0.295125 -8.00519
RightLeg  27.1623 9.85413 5.27963
RightFoot  -21.1994 0.544515 8.20146
RightToes  -4.65661e-009 0 -3.6325e-017
Spine  0.891373 2.53117 2.40239
Spine1  10.0879 4.55331 -7.47071
HEad  2.33222 -28.7053 1.13285
LeftShoulder1  -0.692908 5.27466 -32.9701
LeftArm  -0.821476 17.9662 -37.6644
LeftForeArm  32.0185 -11.9374 -7.78248
LeftHand  -0.0757526 7.95622 -1.34448
RightShoulder  -0.937592 -6.10185 29.5118
RightArm  16.3604 3.69532 51.8203
RightForeArm  23.9505 7.74567 8.0729
RightHand  0.0583838 1.37389 0.848767
LeftUpLeg  -18.0668 1.36154 -3.84162
LeftLeg  21.415 -1.7592 -0.433748
LeftFoot  5.73393 -0.569914 3.55767
LeftToes  9.86798e-010 -1.28139e-010 1.4132e-011
680
root  -17.6179 37.8449 5.47828 -168.258 -72.3889 157.857
RightUpLeg  17.1943 2.15586 -11.0238
RightLeg  37.197 10.2299 7.96923
RightFoot  -15.4956 0.39885 14.1984
RightToes  -4.65661e-009 0 -3.6325e-017
Spine  2.15816 2.70387 1.08892
Spine1  9.95857 4.73931 -8.99757
HEad  1.84762 -27.6674 1.00831
LeftShoulder1  -0.645559 5.15581 -32.9218
LeftArm  -2.16275 15.3512 -37.8383
LeftForeArm  32.7144 -10.6929 -8.03995
LeftHand  -0.0534317 7.84778 -0.527707
RightShoulder  -0.960945 -6.13867 29.8969
RightArm  14.5876 2.07031 51.6078
RightForeArm  25.4651 4.32003 7.83989
RightHand  0.028104 1.71609 0.301448
LeftUpLeg  -16.6775 2.16509 -5.83861
LeftLeg  23.8594 0.0517278 0.368911
LeftFoot  2.77929 -0.624673 4.88685
LeftToes  9.86798e-010 -1.28139e-010 1.4132e-011
